<?xml version="1.0" standalone="no"?>
<!DOCTYPE svg PUBLIC "-//W3C//DTD SVG 20010904//EN"
 "http://www.w3.org/TR/2001/REC-SVG-20010904/DTD/svg10.dtd">
<svg version="1.0" xmlns="http://www.w3.org/2000/svg"
 width="780.000000pt" height="208.000000pt" viewBox="0 0 780.000000 208.000000"
 preserveAspectRatio="xMidYMid meet">
<metadata>
Created by potrace 1.16, written by Peter Selinger 2001-2019
</metadata>
<g transform="translate(0.000000,208.000000) scale(0.100000,-0.100000)"
fill="#000000" stroke="none">
<path d="M1836 2064 c-3 -8 -6 -426 -6 -928 0 -718 3 -916 13 -929 11 -15 28
-17 132 -15 l120 3 3 53 3 53 41 -36 c89 -81 225 -121 356 -105 275 35 452
269 452 600 0 188 -50 326 -161 445 -171 183 -465 206 -638 50 l-41 -37 -2
428 -3 429 -131 3 c-113 2 -132 0 -138 -14z m686 -991 c110 -60 162 -161 162
-313 0 -146 -48 -251 -141 -310 -94 -60 -202 -63 -294 -7 -166 101 -206 381
-79 554 81 110 231 142 352 76z"/>
<path d="M835 2027 c-21 -33 -815 -1824 -815 -1840 0 -31 25 -37 141 -37 65 0
125 3 134 6 8 4 22 21 29 38 7 17 50 115 96 219 l82 187 363 0 362 0 93 -213
c51 -116 100 -218 108 -225 11 -8 55 -12 137 -12 120 0 145 6 145 37 0 15
-795 1808 -816 1841 -19 28 -40 28 -59 -1z m163 -889 l121 -278 -254 0 -253 0
126 294 c82 191 129 288 133 278 4 -10 61 -142 127 -294z"/>
<path d="M3107 2043 c-4 -3 -7 -426 -7 -939 0 -912 0 -934 19 -944 11 -5 65
-10 120 -10 77 0 103 4 115 16 14 14 16 113 16 938 0 704 -3 925 -12 934 -13
13 -239 18 -251 5z"/>
<path d="M4858 1492 c-6 -126 -22 -166 -73 -188 -19 -8 -54 -14 -77 -14 -68 0
-69 -2 -66 -131 l3 -114 108 -3 107 -3 0 -279 c0 -167 4 -300 11 -332 27 -127
101 -221 201 -254 72 -24 234 -22 286 3 l37 18 0 120 0 120 -35 -2 c-19 -1
-60 -5 -91 -8 -71 -9 -95 3 -122 63 -20 43 -22 68 -25 295 l-4 247 122 0 c67
0 130 5 141 10 17 10 19 22 19 118 0 71 -4 112 -12 120 -8 8 -54 12 -140 12
l-128 0 0 155 0 155 -129 0 -128 0 -5 -108z"/>
<path d="M3949 1351 c-203 -38 -352 -187 -405 -407 -23 -95 -23 -287 0 -374
55 -203 184 -342 371 -395 84 -25 230 -23 315 4 127 40 219 109 296 221 39 57
46 74 38 88 -13 21 -183 122 -206 122 -9 0 -28 -20 -42 -44 -43 -73 -110 -134
-168 -151 -65 -19 -101 -19 -167 1 -89 26 -166 114 -184 211 l-6 33 392 2 392
3 3 80 c10 268 -133 513 -340 585 -70 24 -214 34 -289 21z m194 -254 c18 -8
47 -27 65 -42 33 -28 92 -119 92 -142 0 -10 -55 -13 -240 -13 -161 0 -240 3
-240 10 0 6 7 25 16 43 51 98 134 157 222 157 29 0 67 -6 85 -13z"/>
<path d="M5950 1344 c-205 -44 -372 -204 -436 -419 -25 -82 -25 -258 0 -340
61 -203 216 -358 412 -410 76 -21 231 -21 307 -1 365 99 540 513 366 865 -118
239 -382 363 -649 305z m264 -283 c64 -32 123 -92 155 -161 22 -47 26 -69 26
-145 0 -78 -4 -97 -28 -147 -35 -71 -119 -150 -183 -172 -156 -53 -318 23
-392 183 -39 82 -37 191 2 279 34 74 113 152 178 176 64 23 180 17 242 -13z"/>
<path d="M7219 1301 c-31 -10 -77 -32 -102 -50 -47 -32 -47 -32 -47 -8 0 41
-17 47 -131 47 -59 0 -114 -3 -123 -6 -14 -6 -16 -64 -16 -560 0 -537 1 -554
19 -564 28 -15 213 -13 234 2 14 12 16 53 20 368 4 370 6 396 50 461 36 55 98
81 183 77 59 -3 77 -8 107 -31 63 -48 67 -78 67 -493 0 -316 2 -365 16 -378
20 -20 223 -23 242 -4 15 15 17 733 2 826 -18 107 -47 170 -109 233 -47 48
-67 60 -125 78 -86 27 -208 27 -287 2z"/>
</g>
</svg>
